# xmcd
#
# Track frame offsets: 
#        150
#        13675
#        30733
#        40263
#        52603
#        63550
#        77605
#        88995
#        103370
#        114838
#        128488
#        142288
#        154850
#        169338
#        185113
#        197095
#
# Disc length: 2760 seconds
#
# Revision: 1
# Processed by: cddbd v1.5.2PL0 Copyright (c) Steve Scherf et al.
# Submitted via: ExactAudioCopy v0.99pb3
#
DISCID=de0ac610
DTITLE=Jim Croce - Jim Croce - Photographs and Memories  - His Greatest 
DTITLE=Hits
DYEAR=1992
DGENRE=Country
TTITLE0=Bad, Bad Leroy Brown
TTITLE1=Operator (That's not the way it feels)
TTITLE2=Photographs And Memories
TTITLE3=Rapid Roy (The stock car boy)
TTITLE4=Time In A Bottle
TTITLE5=New York's Not My Home
TTITLE6=Workin' At The Carwash Blues
TTITLE7=I Got A Name
TTITLE8=I'll Have To Say I Love You In A Song
TTITLE9=You Don't Mess Around With Jim
TTITLE10=Lover's Cross
TTITLE11=One Less Set Of Footsteps
TTITLE12=These Dreams
TTITLE13=Roller Derby Queen
TTITLE14=Alabama Rain
TTITLE15=Dreamin' Again
EXTD=
EXTT0=
EXTT1=
EXTT2=
EXTT3=
EXTT4=
EXTT5=
EXTT6=
EXTT7=
EXTT8=
EXTT9=
EXTT10=
EXTT11=
EXTT12=
EXTT13=
EXTT14=
EXTT15=
PLAYORDER=
